<svg id="Component_1_1" data-name="Component 1 – 1" xmlns="http://www.w3.org/2000/svg" xmlns:xlink="http://www.w3.org/1999/xlink" width="1926" height="77.675" viewBox="0 0 1926 77.675">
  <defs>
    <clipPath id="clip-path">
      <rect width="1926" height="77.675" fill="none"/>
    </clipPath>
  </defs>
  <path id="Path_1" data-name="Path 1" d="M0,0H1920" transform="translate(0.095 13.5)" fill="none" stroke="#0069b4" stroke-width="10"/>
  <path id="Path_2" data-name="Path 2" d="M0,0H1920" transform="translate(0.095 63.5)" fill="none" stroke="#0069b4" stroke-width="10"/>
  <g id="Repeat_Grid_1" data-name="Repeat Grid 1" clip-path="url(#clip-path)">
    <g transform="translate(0.095 -142)">
      <path id="Path_3" data-name="Path 3" d="M0,0H77.675" transform="translate(4.905 142) rotate(90)" fill="none" stroke="#0069b4" stroke-width="10"/>
    </g>
    <g transform="translate(30.095 -142)">
      <path id="Path_3-2" data-name="Path 3" d="M0,0H77.675" transform="translate(4.905 142) rotate(90)" fill="none" stroke="#0069b4" stroke-width="10"/>
    </g>
    <g transform="translate(60.095 -142)">
      <path id="Path_3-3" data-name="Path 3" d="M0,0H77.675" transform="translate(4.905 142) rotate(90)" fill="none" stroke="#0069b4" stroke-width="10"/>
    </g>
    <g transform="translate(90.095 -142)">
      <path id="Path_3-4" data-name="Path 3" d="M0,0H77.675" transform="translate(4.905 142) rotate(90)" fill="none" stroke="#0069b4" stroke-width="10"/>
    </g>
    <g transform="translate(120.095 -142)">
      <path id="Path_3-5" data-name="Path 3" d="M0,0H77.675" transform="translate(4.905 142) rotate(90)" fill="none" stroke="#0069b4" stroke-width="10"/>
    </g>
    <g transform="translate(150.095 -142)">
      <path id="Path_3-6" data-name="Path 3" d="M0,0H77.675" transform="translate(4.905 142) rotate(90)" fill="none" stroke="#0069b4" stroke-width="10"/>
    </g>
    <g transform="translate(180.095 -142)">
      <path id="Path_3-7" data-name="Path 3" d="M0,0H77.675" transform="translate(4.905 142) rotate(90)" fill="none" stroke="#0069b4" stroke-width="10"/>
    </g>
    <g transform="translate(210.095 -142)">
      <path id="Path_3-8" data-name="Path 3" d="M0,0H77.675" transform="translate(4.905 142) rotate(90)" fill="none" stroke="#0069b4" stroke-width="10"/>
    </g>
    <g transform="translate(240.095 -142)">
      <path id="Path_3-9" data-name="Path 3" d="M0,0H77.675" transform="translate(4.905 142) rotate(90)" fill="none" stroke="#0069b4" stroke-width="10"/>
    </g>
    <g transform="translate(270.095 -142)">
      <path id="Path_3-10" data-name="Path 3" d="M0,0H77.675" transform="translate(4.905 142) rotate(90)" fill="none" stroke="#0069b4" stroke-width="10"/>
    </g>
    <g transform="translate(300.095 -142)">
      <path id="Path_3-11" data-name="Path 3" d="M0,0H77.675" transform="translate(4.905 142) rotate(90)" fill="none" stroke="#0069b4" stroke-width="10"/>
    </g>
    <g transform="translate(330.095 -142)">
      <path id="Path_3-12" data-name="Path 3" d="M0,0H77.675" transform="translate(4.905 142) rotate(90)" fill="none" stroke="#0069b4" stroke-width="10"/>
    </g>
    <g transform="translate(360.095 -142)">
      <path id="Path_3-13" data-name="Path 3" d="M0,0H77.675" transform="translate(4.905 142) rotate(90)" fill="none" stroke="#0069b4" stroke-width="10"/>
    </g>
    <g transform="translate(390.095 -142)">
      <path id="Path_3-14" data-name="Path 3" d="M0,0H77.675" transform="translate(4.905 142) rotate(90)" fill="none" stroke="#0069b4" stroke-width="10"/>
    </g>
    <g transform="translate(420.095 -142)">
      <path id="Path_3-15" data-name="Path 3" d="M0,0H77.675" transform="translate(4.905 142) rotate(90)" fill="none" stroke="#0069b4" stroke-width="10"/>
    </g>
    <g transform="translate(450.095 -142)">
      <path id="Path_3-16" data-name="Path 3" d="M0,0H77.675" transform="translate(4.905 142) rotate(90)" fill="none" stroke="#0069b4" stroke-width="10"/>
    </g>
    <g transform="translate(480.095 -142)">
      <path id="Path_3-17" data-name="Path 3" d="M0,0H77.675" transform="translate(4.905 142) rotate(90)" fill="none" stroke="#0069b4" stroke-width="10"/>
    </g>
    <g transform="translate(510.095 -142)">
      <path id="Path_3-18" data-name="Path 3" d="M0,0H77.675" transform="translate(4.905 142) rotate(90)" fill="none" stroke="#0069b4" stroke-width="10"/>
    </g>
    <g transform="translate(540.095 -142)">
      <path id="Path_3-19" data-name="Path 3" d="M0,0H77.675" transform="translate(4.905 142) rotate(90)" fill="none" stroke="#0069b4" stroke-width="10"/>
    </g>
    <g transform="translate(570.095 -142)">
      <path id="Path_3-20" data-name="Path 3" d="M0,0H77.675" transform="translate(4.905 142) rotate(90)" fill="none" stroke="#0069b4" stroke-width="10"/>
    </g>
    <g transform="translate(600.095 -142)">
      <path id="Path_3-21" data-name="Path 3" d="M0,0H77.675" transform="translate(4.905 142) rotate(90)" fill="none" stroke="#0069b4" stroke-width="10"/>
    </g>
    <g transform="translate(630.095 -142)">
      <path id="Path_3-22" data-name="Path 3" d="M0,0H77.675" transform="translate(4.905 142) rotate(90)" fill="none" stroke="#0069b4" stroke-width="10"/>
    </g>
    <g transform="translate(660.095 -142)">
      <path id="Path_3-23" data-name="Path 3" d="M0,0H77.675" transform="translate(4.905 142) rotate(90)" fill="none" stroke="#0069b4" stroke-width="10"/>
    </g>
    <g transform="translate(690.095 -142)">
      <path id="Path_3-24" data-name="Path 3" d="M0,0H77.675" transform="translate(4.905 142) rotate(90)" fill="none" stroke="#0069b4" stroke-width="10"/>
    </g>
    <g transform="translate(720.095 -142)">
      <path id="Path_3-25" data-name="Path 3" d="M0,0H77.675" transform="translate(4.905 142) rotate(90)" fill="none" stroke="#0069b4" stroke-width="10"/>
    </g>
    <g transform="translate(750.095 -142)">
      <path id="Path_3-26" data-name="Path 3" d="M0,0H77.675" transform="translate(4.905 142) rotate(90)" fill="none" stroke="#0069b4" stroke-width="10"/>
    </g>
    <g transform="translate(780.095 -142)">
      <path id="Path_3-27" data-name="Path 3" d="M0,0H77.675" transform="translate(4.905 142) rotate(90)" fill="none" stroke="#0069b4" stroke-width="10"/>
    </g>
    <g transform="translate(810.095 -142)">
      <path id="Path_3-28" data-name="Path 3" d="M0,0H77.675" transform="translate(4.905 142) rotate(90)" fill="none" stroke="#0069b4" stroke-width="10"/>
    </g>
    <g transform="translate(840.095 -142)">
      <path id="Path_3-29" data-name="Path 3" d="M0,0H77.675" transform="translate(4.905 142) rotate(90)" fill="none" stroke="#0069b4" stroke-width="10"/>
    </g>
    <g transform="translate(870.095 -142)">
      <path id="Path_3-30" data-name="Path 3" d="M0,0H77.675" transform="translate(4.905 142) rotate(90)" fill="none" stroke="#0069b4" stroke-width="10"/>
    </g>
    <g transform="translate(900.095 -142)">
      <path id="Path_3-31" data-name="Path 3" d="M0,0H77.675" transform="translate(4.905 142) rotate(90)" fill="none" stroke="#0069b4" stroke-width="10"/>
    </g>
    <g transform="translate(930.095 -142)">
      <path id="Path_3-32" data-name="Path 3" d="M0,0H77.675" transform="translate(4.905 142) rotate(90)" fill="none" stroke="#0069b4" stroke-width="10"/>
    </g>
    <g transform="translate(960.095 -142)">
      <path id="Path_3-33" data-name="Path 3" d="M0,0H77.675" transform="translate(4.905 142) rotate(90)" fill="none" stroke="#0069b4" stroke-width="10"/>
    </g>
    <g transform="translate(990.095 -142)">
      <path id="Path_3-34" data-name="Path 3" d="M0,0H77.675" transform="translate(4.905 142) rotate(90)" fill="none" stroke="#0069b4" stroke-width="10"/>
    </g>
    <g transform="translate(1020.095 -142)">
      <path id="Path_3-35" data-name="Path 3" d="M0,0H77.675" transform="translate(4.905 142) rotate(90)" fill="none" stroke="#0069b4" stroke-width="10"/>
    </g>
    <g transform="translate(1050.095 -142)">
      <path id="Path_3-36" data-name="Path 3" d="M0,0H77.675" transform="translate(4.905 142) rotate(90)" fill="none" stroke="#0069b4" stroke-width="10"/>
    </g>
    <g transform="translate(1080.095 -142)">
      <path id="Path_3-37" data-name="Path 3" d="M0,0H77.675" transform="translate(4.905 142) rotate(90)" fill="none" stroke="#0069b4" stroke-width="10"/>
    </g>
    <g transform="translate(1110.095 -142)">
      <path id="Path_3-38" data-name="Path 3" d="M0,0H77.675" transform="translate(4.905 142) rotate(90)" fill="none" stroke="#0069b4" stroke-width="10"/>
    </g>
    <g transform="translate(1140.095 -142)">
      <path id="Path_3-39" data-name="Path 3" d="M0,0H77.675" transform="translate(4.905 142) rotate(90)" fill="none" stroke="#0069b4" stroke-width="10"/>
    </g>
    <g transform="translate(1170.095 -142)">
      <path id="Path_3-40" data-name="Path 3" d="M0,0H77.675" transform="translate(4.905 142) rotate(90)" fill="none" stroke="#0069b4" stroke-width="10"/>
    </g>
    <g transform="translate(1200.095 -142)">
      <path id="Path_3-41" data-name="Path 3" d="M0,0H77.675" transform="translate(4.905 142) rotate(90)" fill="none" stroke="#0069b4" stroke-width="10"/>
    </g>
    <g transform="translate(1230.095 -142)">
      <path id="Path_3-42" data-name="Path 3" d="M0,0H77.675" transform="translate(4.905 142) rotate(90)" fill="none" stroke="#0069b4" stroke-width="10"/>
    </g>
    <g transform="translate(1260.095 -142)">
      <path id="Path_3-43" data-name="Path 3" d="M0,0H77.675" transform="translate(4.905 142) rotate(90)" fill="none" stroke="#0069b4" stroke-width="10"/>
    </g>
    <g transform="translate(1290.095 -142)">
      <path id="Path_3-44" data-name="Path 3" d="M0,0H77.675" transform="translate(4.905 142) rotate(90)" fill="none" stroke="#0069b4" stroke-width="10"/>
    </g>
    <g transform="translate(1320.095 -142)">
      <path id="Path_3-45" data-name="Path 3" d="M0,0H77.675" transform="translate(4.905 142) rotate(90)" fill="none" stroke="#0069b4" stroke-width="10"/>
    </g>
    <g transform="translate(1350.095 -142)">
      <path id="Path_3-46" data-name="Path 3" d="M0,0H77.675" transform="translate(4.905 142) rotate(90)" fill="none" stroke="#0069b4" stroke-width="10"/>
    </g>
    <g transform="translate(1380.095 -142)">
      <path id="Path_3-47" data-name="Path 3" d="M0,0H77.675" transform="translate(4.905 142) rotate(90)" fill="none" stroke="#0069b4" stroke-width="10"/>
    </g>
    <g transform="translate(1410.095 -142)">
      <path id="Path_3-48" data-name="Path 3" d="M0,0H77.675" transform="translate(4.905 142) rotate(90)" fill="none" stroke="#0069b4" stroke-width="10"/>
    </g>
    <g transform="translate(1440.095 -142)">
      <path id="Path_3-49" data-name="Path 3" d="M0,0H77.675" transform="translate(4.905 142) rotate(90)" fill="none" stroke="#0069b4" stroke-width="10"/>
    </g>
    <g transform="translate(1470.095 -142)">
      <path id="Path_3-50" data-name="Path 3" d="M0,0H77.675" transform="translate(4.905 142) rotate(90)" fill="none" stroke="#0069b4" stroke-width="10"/>
    </g>
    <g transform="translate(1500.095 -142)">
      <path id="Path_3-51" data-name="Path 3" d="M0,0H77.675" transform="translate(4.905 142) rotate(90)" fill="none" stroke="#0069b4" stroke-width="10"/>
    </g>
    <g transform="translate(1530.095 -142)">
      <path id="Path_3-52" data-name="Path 3" d="M0,0H77.675" transform="translate(4.905 142) rotate(90)" fill="none" stroke="#0069b4" stroke-width="10"/>
    </g>
    <g transform="translate(1560.095 -142)">
      <path id="Path_3-53" data-name="Path 3" d="M0,0H77.675" transform="translate(4.905 142) rotate(90)" fill="none" stroke="#0069b4" stroke-width="10"/>
    </g>
    <g transform="translate(1590.095 -142)">
      <path id="Path_3-54" data-name="Path 3" d="M0,0H77.675" transform="translate(4.905 142) rotate(90)" fill="none" stroke="#0069b4" stroke-width="10"/>
    </g>
    <g transform="translate(1620.095 -142)">
      <path id="Path_3-55" data-name="Path 3" d="M0,0H77.675" transform="translate(4.905 142) rotate(90)" fill="none" stroke="#0069b4" stroke-width="10"/>
    </g>
    <g transform="translate(1650.095 -142)">
      <path id="Path_3-56" data-name="Path 3" d="M0,0H77.675" transform="translate(4.905 142) rotate(90)" fill="none" stroke="#0069b4" stroke-width="10"/>
    </g>
    <g transform="translate(1680.095 -142)">
      <path id="Path_3-57" data-name="Path 3" d="M0,0H77.675" transform="translate(4.905 142) rotate(90)" fill="none" stroke="#0069b4" stroke-width="10"/>
    </g>
    <g transform="translate(1710.095 -142)">
      <path id="Path_3-58" data-name="Path 3" d="M0,0H77.675" transform="translate(4.905 142) rotate(90)" fill="none" stroke="#0069b4" stroke-width="10"/>
    </g>
    <g transform="translate(1740.095 -142)">
      <path id="Path_3-59" data-name="Path 3" d="M0,0H77.675" transform="translate(4.905 142) rotate(90)" fill="none" stroke="#0069b4" stroke-width="10"/>
    </g>
    <g transform="translate(1770.095 -142)">
      <path id="Path_3-60" data-name="Path 3" d="M0,0H77.675" transform="translate(4.905 142) rotate(90)" fill="none" stroke="#0069b4" stroke-width="10"/>
    </g>
    <g transform="translate(1800.095 -142)">
      <path id="Path_3-61" data-name="Path 3" d="M0,0H77.675" transform="translate(4.905 142) rotate(90)" fill="none" stroke="#0069b4" stroke-width="10"/>
    </g>
    <g transform="translate(1830.095 -142)">
      <path id="Path_3-62" data-name="Path 3" d="M0,0H77.675" transform="translate(4.905 142) rotate(90)" fill="none" stroke="#0069b4" stroke-width="10"/>
    </g>
    <g transform="translate(1860.095 -142)">
      <path id="Path_3-63" data-name="Path 3" d="M0,0H77.675" transform="translate(4.905 142) rotate(90)" fill="none" stroke="#0069b4" stroke-width="10"/>
    </g>
    <g transform="translate(1890.095 -142)">
      <path id="Path_3-64" data-name="Path 3" d="M0,0H77.675" transform="translate(4.905 142) rotate(90)" fill="none" stroke="#0069b4" stroke-width="10"/>
    </g>
    <g transform="translate(1920.095 -142)">
      <path id="Path_3-65" data-name="Path 3" d="M0,0H77.675" transform="translate(4.905 142) rotate(90)" fill="none" stroke="#0069b4" stroke-width="10"/>
    </g>
  </g>
  <path id="Path_4" data-name="Path 4" d="M0,0H1920" transform="translate(0.095 13.5)" fill="none" stroke="#0069b4" stroke-width="10"/>
  <path id="Path_5" data-name="Path 5" d="M0,0H1920" transform="translate(0.095 63.5)" fill="none" stroke="#0069b4" stroke-width="10"/>
  <g id="Repeat_Grid_2" data-name="Repeat Grid 2" clip-path="url(#clip-path)">
    <g transform="translate(0.095 -142)">
      <path id="Path_3-66" data-name="Path 3" d="M0,0H77.675" transform="translate(4.905 142) rotate(90)" fill="none" stroke="#0069b4" stroke-width="10"/>
    </g>
    <g transform="translate(30.095 -142)">
      <path id="Path_3-67" data-name="Path 3" d="M0,0H77.675" transform="translate(4.905 142) rotate(90)" fill="none" stroke="#0069b4" stroke-width="10"/>
    </g>
    <g transform="translate(60.095 -142)">
      <path id="Path_3-68" data-name="Path 3" d="M0,0H77.675" transform="translate(4.905 142) rotate(90)" fill="none" stroke="#0069b4" stroke-width="10"/>
    </g>
    <g transform="translate(90.095 -142)">
      <path id="Path_3-69" data-name="Path 3" d="M0,0H77.675" transform="translate(4.905 142) rotate(90)" fill="none" stroke="#0069b4" stroke-width="10"/>
    </g>
    <g transform="translate(120.095 -142)">
      <path id="Path_3-70" data-name="Path 3" d="M0,0H77.675" transform="translate(4.905 142) rotate(90)" fill="none" stroke="#0069b4" stroke-width="10"/>
    </g>
    <g transform="translate(150.095 -142)">
      <path id="Path_3-71" data-name="Path 3" d="M0,0H77.675" transform="translate(4.905 142) rotate(90)" fill="none" stroke="#0069b4" stroke-width="10"/>
    </g>
    <g transform="translate(180.095 -142)">
      <path id="Path_3-72" data-name="Path 3" d="M0,0H77.675" transform="translate(4.905 142) rotate(90)" fill="none" stroke="#0069b4" stroke-width="10"/>
    </g>
    <g transform="translate(210.095 -142)">
      <path id="Path_3-73" data-name="Path 3" d="M0,0H77.675" transform="translate(4.905 142) rotate(90)" fill="none" stroke="#0069b4" stroke-width="10"/>
    </g>
    <g transform="translate(240.095 -142)">
      <path id="Path_3-74" data-name="Path 3" d="M0,0H77.675" transform="translate(4.905 142) rotate(90)" fill="none" stroke="#0069b4" stroke-width="10"/>
    </g>
    <g transform="translate(270.095 -142)">
      <path id="Path_3-75" data-name="Path 3" d="M0,0H77.675" transform="translate(4.905 142) rotate(90)" fill="none" stroke="#0069b4" stroke-width="10"/>
    </g>
    <g transform="translate(300.095 -142)">
      <path id="Path_3-76" data-name="Path 3" d="M0,0H77.675" transform="translate(4.905 142) rotate(90)" fill="none" stroke="#0069b4" stroke-width="10"/>
    </g>
    <g transform="translate(330.095 -142)">
      <path id="Path_3-77" data-name="Path 3" d="M0,0H77.675" transform="translate(4.905 142) rotate(90)" fill="none" stroke="#0069b4" stroke-width="10"/>
    </g>
    <g transform="translate(360.095 -142)">
      <path id="Path_3-78" data-name="Path 3" d="M0,0H77.675" transform="translate(4.905 142) rotate(90)" fill="none" stroke="#0069b4" stroke-width="10"/>
    </g>
    <g transform="translate(390.095 -142)">
      <path id="Path_3-79" data-name="Path 3" d="M0,0H77.675" transform="translate(4.905 142) rotate(90)" fill="none" stroke="#0069b4" stroke-width="10"/>
    </g>
    <g transform="translate(420.095 -142)">
      <path id="Path_3-80" data-name="Path 3" d="M0,0H77.675" transform="translate(4.905 142) rotate(90)" fill="none" stroke="#0069b4" stroke-width="10"/>
    </g>
    <g transform="translate(450.095 -142)">
      <path id="Path_3-81" data-name="Path 3" d="M0,0H77.675" transform="translate(4.905 142) rotate(90)" fill="none" stroke="#0069b4" stroke-width="10"/>
    </g>
    <g transform="translate(480.095 -142)">
      <path id="Path_3-82" data-name="Path 3" d="M0,0H77.675" transform="translate(4.905 142) rotate(90)" fill="none" stroke="#0069b4" stroke-width="10"/>
    </g>
    <g transform="translate(510.095 -142)">
      <path id="Path_3-83" data-name="Path 3" d="M0,0H77.675" transform="translate(4.905 142) rotate(90)" fill="none" stroke="#0069b4" stroke-width="10"/>
    </g>
    <g transform="translate(540.095 -142)">
      <path id="Path_3-84" data-name="Path 3" d="M0,0H77.675" transform="translate(4.905 142) rotate(90)" fill="none" stroke="#0069b4" stroke-width="10"/>
    </g>
    <g transform="translate(570.095 -142)">
      <path id="Path_3-85" data-name="Path 3" d="M0,0H77.675" transform="translate(4.905 142) rotate(90)" fill="none" stroke="#0069b4" stroke-width="10"/>
    </g>
    <g transform="translate(600.095 -142)">
      <path id="Path_3-86" data-name="Path 3" d="M0,0H77.675" transform="translate(4.905 142) rotate(90)" fill="none" stroke="#0069b4" stroke-width="10"/>
    </g>
    <g transform="translate(630.095 -142)">
      <path id="Path_3-87" data-name="Path 3" d="M0,0H77.675" transform="translate(4.905 142) rotate(90)" fill="none" stroke="#0069b4" stroke-width="10"/>
    </g>
    <g transform="translate(660.095 -142)">
      <path id="Path_3-88" data-name="Path 3" d="M0,0H77.675" transform="translate(4.905 142) rotate(90)" fill="none" stroke="#0069b4" stroke-width="10"/>
    </g>
    <g transform="translate(690.095 -142)">
      <path id="Path_3-89" data-name="Path 3" d="M0,0H77.675" transform="translate(4.905 142) rotate(90)" fill="none" stroke="#0069b4" stroke-width="10"/>
    </g>
    <g transform="translate(720.095 -142)">
      <path id="Path_3-90" data-name="Path 3" d="M0,0H77.675" transform="translate(4.905 142) rotate(90)" fill="none" stroke="#0069b4" stroke-width="10"/>
    </g>
    <g transform="translate(750.095 -142)">
      <path id="Path_3-91" data-name="Path 3" d="M0,0H77.675" transform="translate(4.905 142) rotate(90)" fill="none" stroke="#0069b4" stroke-width="10"/>
    </g>
    <g transform="translate(780.095 -142)">
      <path id="Path_3-92" data-name="Path 3" d="M0,0H77.675" transform="translate(4.905 142) rotate(90)" fill="none" stroke="#0069b4" stroke-width="10"/>
    </g>
    <g transform="translate(810.095 -142)">
      <path id="Path_3-93" data-name="Path 3" d="M0,0H77.675" transform="translate(4.905 142) rotate(90)" fill="none" stroke="#0069b4" stroke-width="10"/>
    </g>
    <g transform="translate(840.095 -142)">
      <path id="Path_3-94" data-name="Path 3" d="M0,0H77.675" transform="translate(4.905 142) rotate(90)" fill="none" stroke="#0069b4" stroke-width="10"/>
    </g>
    <g transform="translate(870.095 -142)">
      <path id="Path_3-95" data-name="Path 3" d="M0,0H77.675" transform="translate(4.905 142) rotate(90)" fill="none" stroke="#0069b4" stroke-width="10"/>
    </g>
    <g transform="translate(900.095 -142)">
      <path id="Path_3-96" data-name="Path 3" d="M0,0H77.675" transform="translate(4.905 142) rotate(90)" fill="none" stroke="#0069b4" stroke-width="10"/>
    </g>
    <g transform="translate(930.095 -142)">
      <path id="Path_3-97" data-name="Path 3" d="M0,0H77.675" transform="translate(4.905 142) rotate(90)" fill="none" stroke="#0069b4" stroke-width="10"/>
    </g>
    <g transform="translate(960.095 -142)">
      <path id="Path_3-98" data-name="Path 3" d="M0,0H77.675" transform="translate(4.905 142) rotate(90)" fill="none" stroke="#0069b4" stroke-width="10"/>
    </g>
    <g transform="translate(990.095 -142)">
      <path id="Path_3-99" data-name="Path 3" d="M0,0H77.675" transform="translate(4.905 142) rotate(90)" fill="none" stroke="#0069b4" stroke-width="10"/>
    </g>
    <g transform="translate(1020.095 -142)">
      <path id="Path_3-100" data-name="Path 3" d="M0,0H77.675" transform="translate(4.905 142) rotate(90)" fill="none" stroke="#0069b4" stroke-width="10"/>
    </g>
    <g transform="translate(1050.095 -142)">
      <path id="Path_3-101" data-name="Path 3" d="M0,0H77.675" transform="translate(4.905 142) rotate(90)" fill="none" stroke="#0069b4" stroke-width="10"/>
    </g>
    <g transform="translate(1080.095 -142)">
      <path id="Path_3-102" data-name="Path 3" d="M0,0H77.675" transform="translate(4.905 142) rotate(90)" fill="none" stroke="#0069b4" stroke-width="10"/>
    </g>
    <g transform="translate(1110.095 -142)">
      <path id="Path_3-103" data-name="Path 3" d="M0,0H77.675" transform="translate(4.905 142) rotate(90)" fill="none" stroke="#0069b4" stroke-width="10"/>
    </g>
    <g transform="translate(1140.095 -142)">
      <path id="Path_3-104" data-name="Path 3" d="M0,0H77.675" transform="translate(4.905 142) rotate(90)" fill="none" stroke="#0069b4" stroke-width="10"/>
    </g>
    <g transform="translate(1170.095 -142)">
      <path id="Path_3-105" data-name="Path 3" d="M0,0H77.675" transform="translate(4.905 142) rotate(90)" fill="none" stroke="#0069b4" stroke-width="10"/>
    </g>
    <g transform="translate(1200.095 -142)">
      <path id="Path_3-106" data-name="Path 3" d="M0,0H77.675" transform="translate(4.905 142) rotate(90)" fill="none" stroke="#0069b4" stroke-width="10"/>
    </g>
    <g transform="translate(1230.095 -142)">
      <path id="Path_3-107" data-name="Path 3" d="M0,0H77.675" transform="translate(4.905 142) rotate(90)" fill="none" stroke="#0069b4" stroke-width="10"/>
    </g>
    <g transform="translate(1260.095 -142)">
      <path id="Path_3-108" data-name="Path 3" d="M0,0H77.675" transform="translate(4.905 142) rotate(90)" fill="none" stroke="#0069b4" stroke-width="10"/>
    </g>
    <g transform="translate(1290.095 -142)">
      <path id="Path_3-109" data-name="Path 3" d="M0,0H77.675" transform="translate(4.905 142) rotate(90)" fill="none" stroke="#0069b4" stroke-width="10"/>
    </g>
    <g transform="translate(1320.095 -142)">
      <path id="Path_3-110" data-name="Path 3" d="M0,0H77.675" transform="translate(4.905 142) rotate(90)" fill="none" stroke="#0069b4" stroke-width="10"/>
    </g>
    <g transform="translate(1350.095 -142)">
      <path id="Path_3-111" data-name="Path 3" d="M0,0H77.675" transform="translate(4.905 142) rotate(90)" fill="none" stroke="#0069b4" stroke-width="10"/>
    </g>
    <g transform="translate(1380.095 -142)">
      <path id="Path_3-112" data-name="Path 3" d="M0,0H77.675" transform="translate(4.905 142) rotate(90)" fill="none" stroke="#0069b4" stroke-width="10"/>
    </g>
    <g transform="translate(1410.095 -142)">
      <path id="Path_3-113" data-name="Path 3" d="M0,0H77.675" transform="translate(4.905 142) rotate(90)" fill="none" stroke="#0069b4" stroke-width="10"/>
    </g>
    <g transform="translate(1440.095 -142)">
      <path id="Path_3-114" data-name="Path 3" d="M0,0H77.675" transform="translate(4.905 142) rotate(90)" fill="none" stroke="#0069b4" stroke-width="10"/>
    </g>
    <g transform="translate(1470.095 -142)">
      <path id="Path_3-115" data-name="Path 3" d="M0,0H77.675" transform="translate(4.905 142) rotate(90)" fill="none" stroke="#0069b4" stroke-width="10"/>
    </g>
    <g transform="translate(1500.095 -142)">
      <path id="Path_3-116" data-name="Path 3" d="M0,0H77.675" transform="translate(4.905 142) rotate(90)" fill="none" stroke="#0069b4" stroke-width="10"/>
    </g>
    <g transform="translate(1530.095 -142)">
      <path id="Path_3-117" data-name="Path 3" d="M0,0H77.675" transform="translate(4.905 142) rotate(90)" fill="none" stroke="#0069b4" stroke-width="10"/>
    </g>
    <g transform="translate(1560.095 -142)">
      <path id="Path_3-118" data-name="Path 3" d="M0,0H77.675" transform="translate(4.905 142) rotate(90)" fill="none" stroke="#0069b4" stroke-width="10"/>
    </g>
    <g transform="translate(1590.095 -142)">
      <path id="Path_3-119" data-name="Path 3" d="M0,0H77.675" transform="translate(4.905 142) rotate(90)" fill="none" stroke="#0069b4" stroke-width="10"/>
    </g>
    <g transform="translate(1620.095 -142)">
      <path id="Path_3-120" data-name="Path 3" d="M0,0H77.675" transform="translate(4.905 142) rotate(90)" fill="none" stroke="#0069b4" stroke-width="10"/>
    </g>
    <g transform="translate(1650.095 -142)">
      <path id="Path_3-121" data-name="Path 3" d="M0,0H77.675" transform="translate(4.905 142) rotate(90)" fill="none" stroke="#0069b4" stroke-width="10"/>
    </g>
    <g transform="translate(1680.095 -142)">
      <path id="Path_3-122" data-name="Path 3" d="M0,0H77.675" transform="translate(4.905 142) rotate(90)" fill="none" stroke="#0069b4" stroke-width="10"/>
    </g>
    <g transform="translate(1710.095 -142)">
      <path id="Path_3-123" data-name="Path 3" d="M0,0H77.675" transform="translate(4.905 142) rotate(90)" fill="none" stroke="#0069b4" stroke-width="10"/>
    </g>
    <g transform="translate(1740.095 -142)">
      <path id="Path_3-124" data-name="Path 3" d="M0,0H77.675" transform="translate(4.905 142) rotate(90)" fill="none" stroke="#0069b4" stroke-width="10"/>
    </g>
    <g transform="translate(1770.095 -142)">
      <path id="Path_3-125" data-name="Path 3" d="M0,0H77.675" transform="translate(4.905 142) rotate(90)" fill="none" stroke="#0069b4" stroke-width="10"/>
    </g>
    <g transform="translate(1800.095 -142)">
      <path id="Path_3-126" data-name="Path 3" d="M0,0H77.675" transform="translate(4.905 142) rotate(90)" fill="none" stroke="#0069b4" stroke-width="10"/>
    </g>
    <g transform="translate(1830.095 -142)">
      <path id="Path_3-127" data-name="Path 3" d="M0,0H77.675" transform="translate(4.905 142) rotate(90)" fill="none" stroke="#0069b4" stroke-width="10"/>
    </g>
    <g transform="translate(1860.095 -142)">
      <path id="Path_3-128" data-name="Path 3" d="M0,0H77.675" transform="translate(4.905 142) rotate(90)" fill="none" stroke="#0069b4" stroke-width="10"/>
    </g>
    <g transform="translate(1890.095 -142)">
      <path id="Path_3-129" data-name="Path 3" d="M0,0H77.675" transform="translate(4.905 142) rotate(90)" fill="none" stroke="#0069b4" stroke-width="10"/>
    </g>
    <g transform="translate(1920.095 -142)">
      <path id="Path_3-130" data-name="Path 3" d="M0,0H77.675" transform="translate(4.905 142) rotate(90)" fill="none" stroke="#0069b4" stroke-width="10"/>
    </g>
  </g>
</svg>
