<svg id="Component_2_1" data-name="Component 2 – 1" xmlns="http://www.w3.org/2000/svg" width="222.858" height="61.714" viewBox="0 0 222.858 61.714">
  <path id="Icon_ionic-ios-star" data-name="Icon ionic-ios-star" d="M40.732,16.232H27.6L23.607,4.321a1.446,1.446,0,0,0-2.714,0L16.9,16.232H3.679A1.433,1.433,0,0,0,2.25,17.661a1.05,1.05,0,0,0,.027.241,1.373,1.373,0,0,0,.6,1.009L13.67,26.518,9.527,38.562a1.433,1.433,0,0,0,.491,1.607,1.382,1.382,0,0,0,.8.348,1.75,1.75,0,0,0,.893-.321L22.25,32.688,32.786,40.2a1.673,1.673,0,0,0,.893.321,1.283,1.283,0,0,0,.795-.348,1.415,1.415,0,0,0,.491-1.607L30.821,26.518l10.705-7.679.259-.223a1.5,1.5,0,0,0,.464-.955A1.512,1.512,0,0,0,40.732,16.232Z" transform="translate(37.75 15.196)" fill="#fc0"/>
  <path id="Icon_ionic-ios-star-2" data-name="Icon ionic-ios-star" d="M40.732,16.232H27.6L23.607,4.321a1.446,1.446,0,0,0-2.714,0L16.9,16.232H3.679A1.433,1.433,0,0,0,2.25,17.661a1.05,1.05,0,0,0,.027.241,1.373,1.373,0,0,0,.6,1.009L13.67,26.518,9.527,38.562a1.433,1.433,0,0,0,.491,1.607,1.382,1.382,0,0,0,.8.348,1.75,1.75,0,0,0,.893-.321L22.25,32.688,32.786,40.2a1.673,1.673,0,0,0,.893.321,1.283,1.283,0,0,0,.795-.348,1.415,1.415,0,0,0,.491-1.607L30.821,26.518l10.705-7.679.259-.223a1.5,1.5,0,0,0,.464-.955A1.512,1.512,0,0,0,40.732,16.232Z" transform="translate(89.179 21.196)" fill="#fc0"/>
  <path id="Icon_ionic-ios-star-3" data-name="Icon ionic-ios-star" d="M40.732,16.232H27.6L23.607,4.321a1.446,1.446,0,0,0-2.714,0L16.9,16.232H3.679A1.433,1.433,0,0,0,2.25,17.661a1.05,1.05,0,0,0,.027.241,1.373,1.373,0,0,0,.6,1.009L13.67,26.518,9.527,38.562a1.433,1.433,0,0,0,.491,1.607,1.382,1.382,0,0,0,.8.348,1.75,1.75,0,0,0,.893-.321L22.25,32.688,32.786,40.2a1.673,1.673,0,0,0,.893.321,1.283,1.283,0,0,0,.795-.348,1.415,1.415,0,0,0,.491-1.607L30.821,26.518l10.705-7.679.259-.223a1.5,1.5,0,0,0,.464-.955A1.512,1.512,0,0,0,40.732,16.232Z" transform="translate(140.608 15.196)" fill="#fc0"/>
  <path id="Icon_ionic-ios-star-4" data-name="Icon ionic-ios-star" d="M40.732,16.232H27.6L23.607,4.321a1.446,1.446,0,0,0-2.714,0L16.9,16.232H3.679A1.433,1.433,0,0,0,2.25,17.661a1.05,1.05,0,0,0,.027.241,1.373,1.373,0,0,0,.6,1.009L13.67,26.518,9.527,38.562a1.433,1.433,0,0,0,.491,1.607,1.382,1.382,0,0,0,.8.348,1.75,1.75,0,0,0,.893-.321L22.25,32.688,32.786,40.2a1.673,1.673,0,0,0,.893.321,1.283,1.283,0,0,0,.795-.348,1.415,1.415,0,0,0,.491-1.607L30.821,26.518l10.705-7.679.259-.223a1.5,1.5,0,0,0,.464-.955A1.512,1.512,0,0,0,40.732,16.232Z" transform="translate(-2.25 -3.375)" fill="#fc0"/>
  <path id="Icon_ionic-ios-star-5" data-name="Icon ionic-ios-star" d="M40.732,16.232H27.6L23.607,4.321a1.446,1.446,0,0,0-2.714,0L16.9,16.232H3.679A1.433,1.433,0,0,0,2.25,17.661a1.05,1.05,0,0,0,.027.241,1.373,1.373,0,0,0,.6,1.009L13.67,26.518,9.527,38.562a1.433,1.433,0,0,0,.491,1.607,1.382,1.382,0,0,0,.8.348,1.75,1.75,0,0,0,.893-.321L22.25,32.688,32.786,40.2a1.673,1.673,0,0,0,.893.321,1.283,1.283,0,0,0,.795-.348,1.415,1.415,0,0,0,.491-1.607L30.821,26.518l10.705-7.679.259-.223a1.5,1.5,0,0,0,.464-.955A1.512,1.512,0,0,0,40.732,16.232Z" transform="translate(180.608 -3.375)" fill="#fc0"/>
</svg>
